<?xml version="1.0" encoding="UTF-8"?>
<svg width="700pt" height="700pt" version="1.1" viewBox="0 0 700 570" xmlns="http://www.w3.org/2000/svg" xmlns:xlink="http://www.w3.org/1999/xlink" fill="#00a4d6">
 <defs>
  <symbol id="x" overflow="visible">
   <path d="m18.766-1.125c-0.96875 0.5-1.9805 0.875-3.0312 1.125-1.043 0.25781-2.1367 0.39062-3.2812 0.39062-3.3984 0-6.0898-0.94531-8.0781-2.8438-1.9922-1.9062-2.9844-4.4844-2.9844-7.7344 0-3.2578 0.99219-5.8359 2.9844-7.7344 1.9883-1.9062 4.6797-2.8594 8.0781-2.8594 1.1445 0 2.2383 0.13281 3.2812 0.39062 1.0508 0.25 2.0625 0.625 3.0312 1.125v4.2188c-0.98047-0.65625-1.9453-1.1406-2.8906-1.4531-0.94922-0.3125-1.9492-0.46875-3-0.46875-1.875 0-3.3516 0.60547-4.4219 1.8125-1.0742 1.1992-1.6094 2.8555-1.6094 4.9688 0 2.1055 0.53516 3.7617 1.6094 4.9688 1.0703 1.1992 2.5469 1.7969 4.4219 1.7969 1.0508 0 2.0508-0.14844 3-0.45312 0.94531-0.3125 1.9102-0.80078 2.8906-1.4688z"/>
  </symbol>
  <symbol id="c" overflow="visible">
   <path d="m13.734-11.141c-0.4375-0.19531-0.87109-0.34375-1.2969-0.4375-0.41797-0.10156-0.83984-0.15625-1.2656-0.15625-1.2617 0-2.2305 0.40625-2.9062 1.2188-0.67969 0.80469-1.0156 1.9531-1.0156 3.4531v7.0625h-4.8906v-15.312h4.8906v2.5156c0.625-1 1.3438-1.7266 2.1562-2.1875 0.82031-0.46875 1.8008-0.70312 2.9375-0.70312 0.16406 0 0.34375 0.011719 0.53125 0.03125 0.19531 0.011719 0.47656 0.039062 0.84375 0.078125z"/>
  </symbol>
  <symbol id="a" overflow="visible">
   <path d="m17.641-7.7031v1.4062h-11.453c0.125 1.1484 0.53906 2.0078 1.25 2.5781 0.70703 0.57422 1.7031 0.85938 2.9844 0.85938 1.0312 0 2.082-0.14844 3.1562-0.45312 1.082-0.3125 2.1914-0.77344 3.3281-1.3906v3.7656c-1.1562 0.4375-2.3125 0.76562-3.4688 0.98438-1.1562 0.22656-2.3125 0.34375-3.4688 0.34375-2.7734 0-4.9297-0.70312-6.4688-2.1094-1.5312-1.4062-2.2969-3.3789-2.2969-5.9219 0-2.5 0.75391-4.4609 2.2656-5.8906 1.5078-1.4375 3.582-2.1562 6.2188-2.1562 2.4062 0 4.332 0.73047 5.7812 2.1875 1.4453 1.4492 2.1719 3.3828 2.1719 5.7969zm-5.0312-1.625c0-0.92578-0.27344-1.6719-0.8125-2.2344-0.54297-0.57031-1.25-0.85938-2.125-0.85938-0.94922 0-1.7188 0.26562-2.3125 0.79688s-0.96484 1.2969-1.1094 2.2969z"/>
  </symbol>
  <symbol id="j" overflow="visible">
   <path d="m9.2188-6.8906c-1.0234 0-1.793 0.17188-2.3125 0.51562-0.51172 0.34375-0.76562 0.85547-0.76562 1.5312 0 0.625 0.20703 1.1172 0.625 1.4688 0.41406 0.34375 0.98828 0.51562 1.7188 0.51562 0.92578 0 1.7031-0.32812 2.3281-0.98438 0.63281-0.66406 0.95312-1.4922 0.95312-2.4844v-0.5625zm7.4688-1.8438v8.7344h-4.9219v-2.2656c-0.65625 0.92969-1.3984 1.6055-2.2188 2.0312-0.82422 0.41406-1.8242 0.625-3 0.625-1.5859 0-2.8711-0.45703-3.8594-1.375-0.99219-0.92578-1.4844-2.1289-1.4844-3.6094 0-1.7891 0.61328-3.1016 1.8438-3.9375 1.2383-0.84375 3.1797-1.2656 5.8281-1.2656h2.8906v-0.39062c0-0.76953-0.30859-1.332-0.92188-1.6875-0.61719-0.36328-1.5703-0.54688-2.8594-0.54688-1.0547 0-2.0312 0.10547-2.9375 0.3125-0.89844 0.21094-1.7305 0.52344-2.5 0.9375v-3.7344c1.0391-0.25 2.0859-0.44141 3.1406-0.57812 1.0625-0.13281 2.125-0.20312 3.1875-0.20312 2.7578 0 4.75 0.54688 5.9688 1.6406 1.2266 1.0859 1.8438 2.8555 1.8438 5.3125z"/>
  </symbol>
  <symbol id="b" overflow="visible">
   <path d="m7.7031-19.656v4.3438h5.0469v3.5h-5.0469v6.5c0 0.71094 0.14062 1.1875 0.42188 1.4375s0.83594 0.375 1.6719 0.375h2.5156v3.5h-4.1875c-1.9375 0-3.3125-0.39844-4.125-1.2031-0.80469-0.8125-1.2031-2.1797-1.2031-4.1094v-6.5h-2.4219v-3.5h2.4219v-4.3438z"/>
  </symbol>
  <symbol id="h" overflow="visible">
   <path d="m12.766-13.078v-8.2031h4.9219v21.281h-4.9219v-2.2188c-0.66797 0.90625-1.4062 1.5703-2.2188 1.9844s-1.7578 0.625-2.8281 0.625c-1.8867 0-3.4336-0.75-4.6406-2.25-1.2109-1.5-1.8125-3.4258-1.8125-5.7812 0-2.3633 0.60156-4.2969 1.8125-5.7969 1.207-1.5 2.7539-2.25 4.6406-2.25 1.0625 0 2 0.21484 2.8125 0.64062 0.82031 0.42969 1.5664 1.0859 2.2344 1.9688zm-3.2188 9.9219c1.0391 0 1.8359-0.37891 2.3906-1.1406 0.55078-0.76953 0.82812-1.8828 0.82812-3.3438 0-1.457-0.27734-2.5664-0.82812-3.3281-0.55469-0.76953-1.3516-1.1562-2.3906-1.1562-1.043 0-1.8398 0.38672-2.3906 1.1562-0.55469 0.76172-0.82812 1.8711-0.82812 3.3281 0 1.4609 0.27344 2.5742 0.82812 3.3438 0.55078 0.76172 1.3477 1.1406 2.3906 1.1406z"/>
  </symbol>
  <symbol id="i" overflow="visible">
   <path d="m10.5-3.1562c1.0508 0 1.8516-0.37891 2.4062-1.1406 0.55078-0.76953 0.82812-1.8828 0.82812-3.3438 0-1.457-0.27734-2.5664-0.82812-3.3281-0.55469-0.76953-1.3555-1.1562-2.4062-1.1562-1.0547 0-1.8594 0.38672-2.4219 1.1562-0.55469 0.77344-0.82812 1.8828-0.82812 3.3281 0 1.4492 0.27344 2.5586 0.82812 3.3281 0.5625 0.77344 1.3672 1.1562 2.4219 1.1562zm-3.25-9.9219c0.67578-0.88281 1.4219-1.5391 2.2344-1.9688 0.82031-0.42578 1.7656-0.64062 2.8281-0.64062 1.8945 0 3.4453 0.75 4.6562 2.25 1.207 1.5 1.8125 3.4336 1.8125 5.7969 0 2.3555-0.60547 4.2812-1.8125 5.7812-1.2109 1.5-2.7617 2.25-4.6562 2.25-1.0625 0-2.0078-0.21094-2.8281-0.625-0.8125-0.42578-1.5586-1.0859-2.2344-1.9844v2.2188h-4.8906v-21.281h4.8906z"/>
  </symbol>
  <symbol id="g" overflow="visible">
   <path d="m0.34375-15.312h4.8906l4.125 10.391 3.5-10.391h4.8906l-6.4375 16.766c-0.64844 1.6953-1.4023 2.8828-2.2656 3.5625-0.86719 0.6875-2 1.0312-3.4062 1.0312h-2.8438v-3.2188h1.5312c0.83203 0 1.4375-0.13672 1.8125-0.40625 0.38281-0.26172 0.67969-0.73047 0.89062-1.4062l0.14062-0.42188z"/>
  </symbol>
  <symbol id="f" overflow="visible">
   <path d="m14.953-3.7188h-8.2188l-1.3125 3.7188h-5.2812l7.5625-20.406h6.2656l7.5625 20.406h-5.2812zm-6.9062-3.7812h5.5781l-2.7812-8.125z"/>
  </symbol>
  <symbol id="w" overflow="visible">
   <path d="m14.312-14.828v3.7188c-1.043-0.4375-2.0547-0.76562-3.0312-0.98438-0.98047-0.21875-1.9023-0.32812-2.7656-0.32812-0.92969 0-1.6211 0.11719-2.0781 0.34375-0.44922 0.23047-0.67188 0.58984-0.67188 1.0781 0 0.38672 0.17188 0.68359 0.51562 0.89062 0.34375 0.21094 0.95703 0.36719 1.8438 0.46875l0.85938 0.125c2.5078 0.32422 4.1953 0.85156 5.0625 1.5781 0.86328 0.73047 1.2969 1.8711 1.2969 3.4219 0 1.6367-0.60547 2.8672-1.8125 3.6875-1.1992 0.8125-2.9922 1.2188-5.375 1.2188-1.0234 0-2.0742-0.078125-3.1562-0.23438-1.0742-0.15625-2.1797-0.39453-3.3125-0.71875v-3.7188c0.96875 0.48047 1.9609 0.83984 2.9844 1.0781 1.0312 0.23047 2.0781 0.34375 3.1406 0.34375 0.95703 0 1.6758-0.12891 2.1562-0.39062 0.47656-0.26953 0.71875-0.66406 0.71875-1.1875 0-0.4375-0.16797-0.75781-0.5-0.96875-0.33594-0.21875-0.99609-0.38281-1.9844-0.5l-0.85938-0.10938c-2.1797-0.26953-3.7031-0.77344-4.5781-1.5156-0.875-0.73828-1.3125-1.8594-1.3125-3.3594 0-1.625 0.55078-2.8281 1.6562-3.6094 1.1133-0.78906 2.8203-1.1875 5.125-1.1875 0.89453 0 1.8359 0.074219 2.8281 0.21875 1 0.13672 2.082 0.35156 3.25 0.64062z"/>
  </symbol>
  <symbol id="v" overflow="visible">
   <path d="m2.5781-20.406h14.203v3.9688h-8.9531v3.7969h8.4219v3.9844h-8.4219v4.6719h9.25v3.9844h-14.5z"/>
  </symbol>
  <symbol id="u" overflow="visible">
   <path d="m0.42188-15.312h4.8906l3.8281 10.578 3.7969-10.578h4.9062l-6.0312 15.312h-5.375z"/>
  </symbol>
  <symbol id="e" overflow="visible">
   <path d="m17.75-9.3281v9.3281h-4.9219v-7.1406c0-1.3203-0.03125-2.2344-0.09375-2.7344s-0.16797-0.86719-0.3125-1.1094c-0.1875-0.3125-0.44922-0.55469-0.78125-0.73438-0.32422-0.17578-0.69531-0.26562-1.1094-0.26562-1.0234 0-1.8242 0.39844-2.4062 1.1875-0.58594 0.78125-0.875 1.8711-0.875 3.2656v7.5312h-4.8906v-15.312h4.8906v2.2344c0.73828-0.88281 1.5195-1.5391 2.3438-1.9688 0.83203-0.42578 1.75-0.64062 2.75-0.64062 1.7695 0 3.1133 0.54688 4.0312 1.6406 0.91406 1.0859 1.375 2.6562 1.375 4.7188z"/>
  </symbol>
  <symbol id="t" overflow="visible">
   <path d="m2.3594-15.312h4.8906v15.312h-4.8906zm0-5.9688h4.8906v4h-4.8906z"/>
  </symbol>
  <symbol id="s" overflow="visible">
   <path d="m2.3594-21.281h4.8906v21.281h-4.8906z"/>
  </symbol>
  <symbol id="r" overflow="visible">
   <path d="m12.422-21.281v3.2188h-2.7031c-0.6875 0-1.1719 0.125-1.4531 0.375-0.27344 0.25-0.40625 0.6875-0.40625 1.3125v1.0625h4.1875v3.5h-4.1875v11.812h-4.8906v-11.812h-2.4375v-3.5h2.4375v-1.0625c0-1.6641 0.46094-2.8984 1.3906-3.7031 0.92578-0.80078 2.3672-1.2031 4.3281-1.2031z"/>
  </symbol>
  <symbol id="d" overflow="visible">
   <path d="m9.6406-12.188c-1.0859 0-1.9141 0.39062-2.4844 1.1719-0.57422 0.78125-0.85938 1.9062-0.85938 3.375s0.28516 2.5938 0.85938 3.375c0.57031 0.77344 1.3984 1.1562 2.4844 1.1562 1.0625 0 1.875-0.38281 2.4375-1.1562 0.57031-0.78125 0.85938-1.9062 0.85938-3.375s-0.28906-2.5938-0.85938-3.375c-0.5625-0.78125-1.375-1.1719-2.4375-1.1719zm0-3.5c2.6328 0 4.6914 0.71484 6.1719 2.1406 1.4766 1.418 2.2188 3.3867 2.2188 5.9062 0 2.5117-0.74219 4.4805-2.2188 5.9062-1.4805 1.418-3.5391 2.125-6.1719 2.125-2.6484 0-4.7148-0.70703-6.2031-2.125-1.4922-1.4258-2.2344-3.3945-2.2344-5.9062 0-2.5195 0.74219-4.4883 2.2344-5.9062 1.4883-1.4258 3.5547-2.1406 6.2031-2.1406z"/>
  </symbol>
  <symbol id="q" overflow="visible">
   <path d="m16.547-12.766c0.61328-0.94531 1.3477-1.6719 2.2031-2.1719 0.85156-0.5 1.7891-0.75 2.8125-0.75 1.7578 0 3.0977 0.54688 4.0156 1.6406 0.92578 1.0859 1.3906 2.6562 1.3906 4.7188v9.3281h-4.9219v-7.9844-0.35938c0.007813-0.13281 0.015625-0.32031 0.015625-0.5625 0-1.082-0.16406-1.8633-0.48438-2.3438-0.3125-0.48828-0.82422-0.73438-1.5312-0.73438-0.92969 0-1.6484 0.38672-2.1562 1.1562-0.51172 0.76172-0.77344 1.8672-0.78125 3.3125v7.5156h-4.9219v-7.9844c0-1.6953-0.14844-2.7852-0.4375-3.2656-0.29297-0.48828-0.8125-0.73438-1.5625-0.73438-0.9375 0-1.6641 0.38672-2.1719 1.1562-0.51172 0.76172-0.76562 1.8594-0.76562 3.2969v7.5312h-4.9219v-15.312h4.9219v2.2344c0.60156-0.86328 1.2891-1.5156 2.0625-1.9531 0.78125-0.4375 1.6406-0.65625 2.5781-0.65625 1.0625 0 2 0.25781 2.8125 0.76562 0.8125 0.51172 1.4258 1.2305 1.8438 2.1562z"/>
  </symbol>
  <symbol id="p" overflow="visible">
   <path d="m17.75-9.3281v9.3281h-4.9219v-7.1094c0-1.3438-0.03125-2.2656-0.09375-2.7656s-0.16797-0.86719-0.3125-1.1094c-0.1875-0.3125-0.44922-0.55469-0.78125-0.73438-0.32422-0.17578-0.69531-0.26562-1.1094-0.26562-1.0234 0-1.8242 0.39844-2.4062 1.1875-0.58594 0.78125-0.875 1.8711-0.875 3.2656v7.5312h-4.8906v-21.281h4.8906v8.2031c0.73828-0.88281 1.5195-1.5391 2.3438-1.9688 0.83203-0.42578 1.75-0.64062 2.75-0.64062 1.7695 0 3.1133 0.54688 4.0312 1.6406 0.91406 1.0859 1.375 2.6562 1.375 4.7188z"/>
  </symbol>
  <symbol id="o" overflow="visible">
   <path d="m2.5781-20.406h5.875l7.4219 14v-14h4.9844v20.406h-5.875l-7.4219-14v14h-4.9844z"/>
  </symbol>
  <symbol id="n" overflow="visible">
   <path d="m2.1875-5.9688v-9.3438h4.9219v1.5312c0 0.83594-0.007813 1.875-0.015625 3.125-0.011719 1.25-0.015625 2.0859-0.015625 2.5 0 1.2422 0.03125 2.1328 0.09375 2.6719 0.070313 0.54297 0.17969 0.93359 0.32812 1.1719 0.20703 0.32422 0.47266 0.57422 0.79688 0.75 0.32031 0.16797 0.69141 0.25 1.1094 0.25 1.0195 0 1.8203-0.39062 2.4062-1.1719 0.58203-0.78125 0.875-1.8672 0.875-3.2656v-7.5625h4.8906v15.312h-4.8906v-2.2188c-0.74219 0.89844-1.5234 1.5586-2.3438 1.9844-0.82422 0.41406-1.7344 0.625-2.7344 0.625-1.7617 0-3.1055-0.53906-4.0312-1.625-0.92969-1.082-1.3906-2.6602-1.3906-4.7344z"/>
  </symbol>
  <symbol id="m" overflow="visible">
   <path d="m2.5781-20.406h8.7344c2.5938 0 4.582 0.57812 5.9688 1.7344 1.3945 1.1484 2.0938 2.7891 2.0938 4.9219 0 2.1367-0.69922 3.7812-2.0938 4.9375-1.3867 1.1562-3.375 1.7344-5.9688 1.7344h-3.4844v7.0781h-5.25zm5.25 3.8125v5.7031h2.9219c1.0195 0 1.8047-0.25 2.3594-0.75 0.5625-0.5 0.84375-1.2031 0.84375-2.1094 0-0.91406-0.28125-1.6172-0.84375-2.1094-0.55469-0.48828-1.3398-0.73438-2.3594-0.73438z"/>
  </symbol>
  <symbol id="l" overflow="visible">
   <path d="m2.3594-15.312h4.8906v15.031c0 2.0508-0.49609 3.6172-1.4844 4.7031-0.98047 1.082-2.4062 1.625-4.2812 1.625h-2.4219v-3.2188h0.85938c0.92578 0 1.5625-0.21094 1.9062-0.625 0.35156-0.41797 0.53125-1.2461 0.53125-2.4844zm0-5.9688h4.8906v4h-4.8906z"/>
  </symbol>
  <symbol id="k" overflow="visible">
   <path d="m14.719-14.828v3.9844c-0.65625-0.45703-1.3242-0.79688-2-1.0156-0.66797-0.21875-1.3594-0.32812-2.0781-0.32812-1.3672 0-2.4336 0.40234-3.2031 1.2031-0.76172 0.79297-1.1406 1.9062-1.1406 3.3438 0 1.4297 0.37891 2.543 1.1406 3.3438 0.76953 0.79297 1.8359 1.1875 3.2031 1.1875 0.75781 0 1.4844-0.10938 2.1719-0.32812 0.6875-0.22656 1.3203-0.56641 1.9062-1.0156v4c-0.76172 0.28125-1.5391 0.48828-2.3281 0.625-0.78125 0.14453-1.5742 0.21875-2.375 0.21875-2.7617 0-4.9219-0.70703-6.4844-2.125-1.5547-1.4141-2.3281-3.3828-2.3281-5.9062 0-2.5312 0.77344-4.5039 2.3281-5.9219 1.5625-1.4141 3.7227-2.125 6.4844-2.125 0.80078 0 1.5938 0.074219 2.375 0.21875 0.78125 0.13672 1.5547 0.35156 2.3281 0.64062z"/>
  </symbol>
 </defs>
 <g>
  <path d="m264.05 124.61-4.9062-0.80469c-45.023-7.3867-96.734-7.8359-154.68-1.3789l-3 0.33594-0.10156-3.0234c-1.0742-32.023-2.9102-61.949-5.6211-91.477l-0.28125-3.0586h3.0703c30.363 0.035156 61.73 0.47656 98.738 1.3945l1.2305 0.035156 0.8125 0.92969c32.633 37.465 52.617 66.84 62.895 92.434zm-82.422-12.332c25.871 0 50.551 1.7539 73.445 5.2148-10.445-23.715-29.398-51.023-59.18-85.32-35.18-0.86719-65.273-1.3008-94.305-1.3555 2.4883 27.719 4.2109 55.832 5.2656 85.727 26.211-2.8359 51.344-4.2656 74.773-4.2656z"/>
  <path d="m394.1 173.49-4.8477-2.6367c-22.484-12.188-47.078-24.914-78.695-34.887l-1.2891-0.40234-0.48047-1.2656c-10.012-26.164-31.875-58.52-68.812-101.83l-4.0977-4.8047 42.656 1.3398c18.891 0.59766 37.582 1.2031 56.152 1.7266l1.5586 0.042969 0.78516 1.3438c33.242 57.008 51.672 101.46 56.34 135.91zm-80.578-42.461c29.164 9.3242 52.348 20.906 73.434 32.223-5.668-32.641-23.387-74.289-53.996-126.97-18.066-0.51562-36.254-1.0938-54.617-1.6875l-30.031-0.94531c34.336 40.742 55.145 71.836 65.211 97.383z"/>
  <path d="m470.6 200.5c-20.293 0-37.918-7.2734-52.496-14.379l-1.5312-0.75781-0.035157-1.707c-0.69531-38.207-14.301-86.598-41.602-147.93l-1.793-4.0273 4.4062 0.089844c33.5 0.67578 61.523 0.86328 90.074 0.53125l2.3242-0.027344 0.45312 2.2734c12.898 64.172 16.043 117.57 9.6367 163.27l-0.3125 2.2227-2.2383 0.17188c-2.3281 0.18359-4.625 0.27344-6.8867 0.27344zm-48.5-18.668c14.719 7.0781 32.48 13.957 52.707 12.957 5.8281-44.012 2.7383-95.379-9.4414-156.85-26.566 0.28516-52.746 0.11719-83.535-0.46875 26.027 59.234 39.223 106.52 40.27 144.36z"/>
  <path d="m505.4 194.05 0.80078-4.9062c7.4648-45.488 7.918-96.086 1.3789-154.67l-0.33594-3.0078 3.0234-0.10547c31.961-1.0703 61.879-2.9102 91.48-5.6211l3.0508-0.28125v3.0742c-0.035156 30.199-0.48828 62.492-1.3945 98.734l-0.035156 1.2305-0.91797 0.8125c-37.48 32.637-66.852 52.617-92.445 62.887zm8.0703-157.19c6.0156 55.715 5.7109 104.29-0.95703 148.21 23.715-10.438 51.012-29.383 85.32-59.18 0.85547-34.469 1.3008-65.363 1.3555-94.293-27.77 2.4766-55.871 4.207-85.719 5.2578z"/>
  <path d="m101.68 256.84 0.09375-4.4062c0.67578-33.402 0.85156-62.871 0.53125-90.074l-0.027344-2.3242 2.2734-0.45312c42.324-8.5 81.02-12.809 115.02-12.809 16.961 0 33.195 1.0625 48.242 3.1758l2.2305 0.3125 0.17188 2.2383c1.793 23.082-5.7188 42.18-14.117 59.375l-0.75 1.5391-1.7188 0.035156c-38.195 0.69141-86.59 14.301-147.92 41.598zm6.25-92.227c0.26953 25.418 0.11719 52.812-0.46875 83.535 59.23-26.023 106.52-39.207 144.36-40.258 7.4648-15.508 13.977-32.602 12.965-52.703-14.156-1.8711-29.348-2.8242-45.207-2.8242-33.02 0.003906-70.578 4.125-111.64 12.25z"/>
  <path d="m352.02 261.95-1.7812-2.1445c-13.562-16.273-29.598-32.473-54.867-40.719l-3.7812-1.2383 2.4375-3.1406c12.645-16.348 21.074-31.062 21.117-49.734l0.011718-3.9805 3.7422 1.3477c31.336 11.316 53.184 26.891 72.121 42.039l1.4062 1.1133-0.42969 1.7461c-5.9414 23.906-21.676 39.562-37.812 52.922zm-51.207-46.906c23.398 8.5898 38.871 23.645 51.918 39.031 16.211-13.699 28.094-27.148 33.371-46.453-17.488-13.887-37.594-28.035-65.488-38.664-1.0469 17.184-8.625 31.16-19.801 46.086z"/>
  <path d="m424.48 322.41-1.7422-0.42969c-23.895-5.9375-39.555-21.684-52.922-37.816l-1.7812-2.1445 2.1523-1.793c16.273-13.559 32.473-29.59 40.719-54.875l1.2383-3.7734 3.1406 2.4297c16.348 12.645 31.059 21.078 49.734 21.117l3.9805 0.003906-1.3555 3.7461c-11.316 31.367-26.898 53.207-42.039 72.141zm-48.562-39.68c13.703 16.211 27.148 28.094 46.441 33.359 13.887-17.477 28.035-37.57 38.672-65.492-17.188-1.0547-31.16-8.6289-46.082-19.801-8.6016 23.406-23.648 38.879-39.031 51.934z"/>
  <path d="m456.52 324.1 2.6328-4.8555c12.18-22.461 24.902-47.039 34.898-78.707l0.40234-1.2891 1.2656-0.48047c26.18-10.02 58.531-31.879 101.81-68.809l4.8086-4.0977-1.332 42.645c-0.60547 18.895-1.2031 37.598-1.7305 56.172l-0.042969 1.5508-1.3438 0.78906c-56.996 33.242-101.46 51.672-135.91 56.34zm42.461-80.598c-9.3398 29.203-20.922 52.383-32.234 73.445 32.648-5.668 74.289-23.379 126.97-53.996 0.51562-18.07 1.0938-36.266 1.6875-54.633l0.94531-30.023c-40.727 34.328-71.812 55.145-97.371 65.207z"/>
  <path d="m97.664 394.13 0.19141-6.3242c0.375-12.438 0.77734-24.781 1.1641-37.031 0.59375-18.652 1.1875-37.121 1.7031-55.461l0.042969-1.5508 1.3438-0.78906c57.008-33.242 101.46-51.664 135.92-56.34l5.4727-0.73828-2.6328 4.8477c-12.18 22.469-24.902 47.047-34.898 78.703l-0.40234 1.2891-1.2656 0.48047c-26.18 10.023-58.531 31.887-101.82 68.812zm8.6172-97.102c-0.50391 17.84-1.082 35.797-1.6641 53.922-0.32422 10.188-0.64844 20.43-0.96875 30.738 40.723-34.328 71.82-55.145 97.383-65.219 9.3398-29.191 20.922-52.371 32.234-73.434-32.652 5.668-74.297 23.375-126.98 53.992z"/>
  <path d="m287.85 338.41-3.1406-2.4375c-16.34-12.641-31.051-21.066-49.727-21.113l-3.9766-0.003907 1.3438-3.7461c11.316-31.332 26.898-53.184 42.043-72.129l1.1211-1.4062 1.7461 0.42969c23.891 5.9297 39.555 21.676 52.914 37.812l1.7734 2.1445-2.1445 1.793c-16.277 13.562-32.48 29.602-40.723 54.867zm-48.879-29.016c17.18 1.0547 31.16 8.6289 46.078 19.797 8.5898-23.398 23.645-38.871 39.031-51.922-13.699-16.219-27.145-28.094-46.434-33.363-13.898 17.488-28.055 37.598-38.676 65.488z"/>
  <path d="m384.86 398.99-3.7422-1.3438c-31.348-11.316-53.195-26.902-72.133-42.043l-1.3984-1.1211 0.42969-1.7461c5.9414-23.902 21.684-39.559 37.824-52.914l2.1445-1.7812 1.793 2.1445c13.559 16.273 29.59 32.48 54.863 40.73l3.7734 1.2266-2.4297 3.1484c-12.645 16.348-21.066 31.059-21.117 49.738zm-70.957-46.629c17.488 13.887 37.594 28.039 65.492 38.668 1.0547-17.18 8.6289-31.16 19.809-46.082-23.406-8.5977-38.879-23.648-51.93-39.039-16.215 13.703-28.102 27.152-33.371 46.453z"/>
  <path d="m480.43 413.22c-16.961 0-33.195-1.0703-48.25-3.1797l-2.2227-0.30859-0.17188-2.2461c-1.793-23.094 5.7188-42.184 14.117-59.375l0.75-1.5352 1.7188-0.035157c38.191-0.69531 86.582-14.301 147.93-41.602l4.0273-1.793-0.089844 4.4062c-0.67188 33.438-0.84375 62.898-0.53125 90.074l0.027344 2.3242-2.2734 0.45312c-42.328 8.5078-81.023 12.816-115.03 12.816zm-45.215-8.4219c14.156 1.875 29.355 2.8242 45.215 2.8242 33.02 0 70.578-4.1211 111.64-12.254-0.27344-25.387-0.11719-52.785 0.46875-83.535-59.238 26.023-106.52 39.219-144.35 40.266-7.4688 15.504-13.984 32.59-12.973 52.699z"/>
  <path d="m95.199 534.54v-3.0703c0.035156-30.363 0.46875-61.73 1.3945-98.734l0.035156-1.2383 0.92188-0.80469c37.469-32.633 66.852-52.617 92.438-62.887l4.6094-1.8555-0.80078 4.9062c-7.4688 45.496-7.918 96.09-1.3711 154.68l0.33594 3.0078-3.0234 0.10156c-31.961 1.0703-61.887 2.9102-91.488 5.6211zm6.9609-100.43c-0.86719 35.172-1.3008 65.27-1.3555 94.297 27.777-2.4883 55.883-4.2109 85.73-5.2578-6.0195-55.715-5.7188-104.29 0.95312-148.22-23.723 10.438-51.023 29.391-85.328 59.184z"/>
  <path d="m326.84 528.31-4.4062-0.089844c-33.609-0.67578-61.578-0.86719-90.066-0.53125l-2.3242 0.027344-0.45312-2.2734c-12.891-64.152-16.039-117.56-9.6328-163.27l0.3125-2.2305 2.2461-0.17188c23.199-1.7969 43.172 6.2109 59.359 14.117l1.5391 0.75 0.035156 1.7148c0.69922 38.215 14.309 86.605 41.598 147.93zm-67.289-6.3711c18.195 0 37.402 0.19531 58.605 0.59766-26.02-59.238-39.207-106.52-40.254-144.36-14.719-7.0859-32.531-13.977-52.695-12.965-5.8281 44.031-2.7422 95.395 9.4297 156.86 8.3047-0.09375 16.602-0.13281 24.914-0.13281z"/>
  <path d="m464.13 532.34-42.633-1.332c-18.898-0.60547-37.605-1.2031-56.184-1.7305l-1.5508-0.042969-0.78906-1.3438c-33.242-57.008-51.664-101.46-56.332-135.91l-0.74609-5.4727 4.8477 2.6328c22.473 12.188 47.062 24.922 78.703 34.895l1.2891 0.40234 0.48047 1.2695c10.02 26.168 31.879 58.527 68.809 101.82zm-97.102-8.6211c18.082 0.51562 36.27 1.0938 54.645 1.6875l30.012 0.94531c-34.328-40.734-55.137-71.82-65.199-97.383-29.18-9.3281-52.371-20.91-73.445-32.227 5.6641 32.645 23.371 74.281 53.988 126.98z"/>
  <path d="m604.54 534.8h-3.0703c-30.492-0.035156-61.863-0.46875-98.734-1.3945l-1.2305-0.035156-0.8125-0.92578c-32.633-37.469-52.617-66.852-62.895-92.438l-1.8477-4.6094 4.8984 0.80078c45.031 7.3906 96.738 7.8398 154.68 1.3789l3.0078-0.33594 0.10156 3.0234c1.0703 31.992 2.9102 61.918 5.6211 91.48zm-100.43-6.9609c35.055 0.86719 65.145 1.3008 94.293 1.3555-2.4805-27.742-4.2109-55.855-5.2578-85.727-55.16 5.9531-104.61 5.6406-148.21-0.95703 10.438 23.723 29.387 51.023 59.18 85.328z"/>
 </g>
</svg>
